<?xml version="1.0" encoding="UTF-8" standalone="no"?>
<!-- Created with Inkscape (http://www.inkscape.org/) -->

<svg
   width="70.153854mm"
   height="39.268887mm"
   viewBox="0 0 70.153854 39.268887"
   version="1.1"
   id="svg5"
   xmlns:inkscape="http://www.inkscape.org/namespaces/inkscape"
   xmlns:sodipodi="http://sodipodi.sourceforge.net/DTD/sodipodi-0.dtd"
   xmlns="http://www.w3.org/2000/svg"
   xmlns:svg="http://www.w3.org/2000/svg">
  <sodipodi:namedview
     id="namedview7"
     pagecolor="#ffffff"
     bordercolor="#000000"
     borderopacity="0.25"
     inkscape:showpageshadow="2"
     inkscape:pageopacity="0.0"
     inkscape:pagecheckerboard="0"
     inkscape:deskcolor="#d1d1d1"
     inkscape:document-units="mm"
     showgrid="false" />
  <defs
     id="defs2" />
  <g
     inkscape:label="Layer 1"
     inkscape:groupmode="layer"
     id="layer1"
     transform="translate(-29.243152,-69.255912)">
    <path
       style="font-weight:bold;font-size:61.6466px;font-family:FreeMono;-inkscape-font-specification:'FreeMono Bold';fill:#171717;stroke-width:0.642151"
       d="m 60.929504,101.49708 q 4.068676,0 4.068676,3.08233 0,3.08233 -4.068676,3.08233 h -7.151005 v -2.15763 q -4.438555,3.02069 -9.308637,3.02069 -6.904419,0 -11.096387,-4.13033 -4.130323,-4.13032 -4.130323,-10.233332 0,-6.103013 4.130323,-10.171689 4.191968,-4.130322 11.158034,-4.130322 5.363254,0 9.24699,3.08233 v -7.582532 h -0.986346 q -1.972691,0 -3.020683,-0.616466 -1.047992,-0.678112 -1.047992,-2.465864 0,-1.726104 1.047992,-2.34257 1.047992,-0.678113 3.020683,-0.678113 h 7.151006 v 32.241168 z m -7.151005,-7.212649 q 0,-3.698796 -2.527511,-5.97972 -2.52751,-2.280924 -6.719479,-2.280924 -4.130322,0 -6.657833,2.404217 -2.465864,2.342571 -2.465864,5.733134 0,3.513856 2.527511,5.856422 2.589157,2.34258 6.657832,2.34258 4.068676,0 6.596187,-2.28093 2.589157,-2.342569 2.589157,-5.794779 z m 9.925127,-21.946189 q 0,-3.08233 4.068675,-3.08233 h 7.151006 v 13.685545 q 3.883735,-3.08233 9.246989,-3.08233 6.966066,0 11.096388,4.130322 4.130322,4.068676 4.130322,10.233336 0,6.164655 -4.191968,10.233335 -4.191969,4.06868 -10.973095,4.06868 -4.931728,0 -9.308636,-3.02069 v 2.15763 h -7.151006 q -4.068675,0 -4.068675,-3.08233 0,-1.78775 1.047992,-2.40421 1.047992,-0.67812 3.020683,-0.67812 h 0.986346 V 75.420572 h -0.986346 q -1.972691,0 -3.020683,-0.616466 -1.047992,-0.678113 -1.047992,-2.465864 z M 84.10865,86.023787 q -4.191969,0 -6.71948,2.342571 -2.465863,2.280924 -2.465863,5.733133 0,3.63715 2.52751,5.979719 2.589157,2.28093 6.657833,2.28093 4.007029,0 6.534539,-2.28093 2.589157,-2.342569 2.589157,-5.918072 0,-3.45221 -2.52751,-5.79478 -2.527511,-2.342571 -6.596186,-2.342571 z"
       id="text113"
       aria-label="db" />
    <text
       xml:space="preserve"
       style="font-style:normal;font-variant:normal;font-weight:bold;font-stretch:normal;font-size:31.0444px;font-family:FreeMono;-inkscape-font-specification:'FreeMono Bold';fill:#171717;fill-opacity:1;stroke-width:0.264583"
       x="35.011162"
       y="97.881958"
       id="text332"><tspan
         sodipodi:role="line"
         id="tspan330"
         style="fill:#171717;fill-opacity:1;stroke-width:0.264583"
         x="35.011162"
         y="97.881958">.</tspan></text>
    <text
       xml:space="preserve"
       style="font-style:normal;font-variant:normal;font-weight:bold;font-stretch:normal;font-size:31.0444px;font-family:FreeMono;-inkscape-font-specification:'FreeMono Bold';fill:#171717;fill-opacity:1;stroke-width:0.264583"
       x="75.640366"
       y="97.881958"
       id="text336"><tspan
         sodipodi:role="line"
         id="tspan334"
         style="fill:#171717;fill-opacity:1;stroke-width:0.264583"
         x="75.640366"
         y="97.881958">.</tspan></text>
  </g>
</svg>
